if (_typeface_js && _typeface_js.loadFace) _typeface_js.loadFace({"glyphs":{"0":{"ha":537,"x_min":15,"x_max":524,"o":"m 15 129 q 27 474 20 153 q 41 825 35 796 l 48 864 l 151 857 q 359 849 252 849 q 466 838 466 849 q 461 830 466 833 q 449 827 456 827 q 437 823 442 827 q 432 814 432 819 q 471 809 432 802 l 509 817 l 516 756 q 524 426 524 695 q 523 296 524 349 q 520 203 522 244 q 514 139 517 162 q 504 101 510 115 q 489 83 497 87 q 469 83 481 79 q 433 64 446 89 q 423 51 427 54 q 402 44 419 47 q 365 43 386 42 q 292 47 343 44 q 143 59 205 52 q 64 68 81 66 q 43 68 48 71 q 28 73 36 64 q 16 98 20 82 q 15 129 12 115 m 197 463 l 199 275 l 326 267 l 332 436 q 332 617 336 578 q 308 666 328 656 q 248 682 285 677 q 213 684 222 686 q 200 669 203 681 q 197 463 195 651 z "},"1":{"ha":281,"x_min":14,"x_max":269,"o":"m 14 126 l 16 235 q 33 660 21 477 q 55 850 44 843 q 103 853 66 857 q 173 838 140 850 q 209 832 193 831 q 235 836 224 833 q 253 834 245 840 q 265 810 260 829 q 268 769 269 808 q 264 697 267 730 q 257 585 262 665 q 251 420 253 505 q 233 172 246 225 l 219 117 l 159 115 q 56 119 96 113 l 14 126 z "},"2":{"ha":498,"x_min":14,"x_max":484,"o":"m 14 701 l 16 775 q 37 877 18 850 q 58 898 49 895 q 92 895 68 901 q 208 884 114 888 q 387 874 302 879 q 477 863 471 869 q 484 650 486 854 l 481 445 l 208 434 l 204 387 q 207 345 201 353 q 245 328 212 337 q 361 314 289 314 q 421 310 408 314 q 437 292 434 307 q 466 269 444 269 q 484 259 481 269 q 481 203 486 249 q 464 129 472 137 q 390 110 450 114 q 201 109 330 105 l 25 115 l 20 223 q 22 433 14 323 q 43 559 30 543 q 43 581 56 574 q 45 600 22 595 q 154 604 68 604 l 276 604 l 279 637 q 273 680 283 670 q 228 690 268 685 q 138 696 189 694 l 14 701 z "},"3":{"ha":564,"x_min":14,"x_max":547,"o":"m 14 718 q 24 806 19 749 l 31 872 l 224 872 q 384 869 345 872 q 431 855 423 866 q 478 835 443 838 q 509 844 509 831 q 509 846 509 845 q 512 856 508 852 q 523 861 516 861 q 547 798 540 861 q 547 546 554 744 q 528 280 539 348 q 517 163 517 212 q 513 117 517 129 q 492 100 508 106 q 308 99 474 94 q 79 113 142 104 q 50 125 54 116 q 45 184 45 135 l 45 252 l 136 248 q 186 246 155 248 q 240 244 218 245 q 273 243 262 243 l 318 240 l 328 292 q 329 367 340 351 q 264 382 317 382 l 202 382 l 195 453 q 193 510 193 488 q 201 544 193 531 q 223 561 210 556 q 264 567 237 566 l 318 570 l 318 684 l 165 690 q 33 698 55 694 q 14 718 12 702 m 469 149 q 470 127 466 128 q 479 133 473 127 q 495 161 495 146 q 487 178 495 178 q 471 156 477 176 l 469 149 z "},"4":{"ha":525,"x_min":15,"x_max":511,"o":"m 18 380 q 15 436 14 385 q 21 553 16 487 q 31 689 26 620 q 36 802 35 759 q 30 849 37 845 q 20 861 20 849 q 37 869 20 865 q 77 872 54 872 l 133 872 l 136 824 q 155 779 140 775 q 175 766 168 781 q 184 721 183 750 q 179 654 185 692 q 176 576 168 584 q 230 554 184 570 q 286 555 271 540 q 310 633 301 570 q 321 682 315 673 q 351 690 328 690 q 375 693 365 690 q 385 701 385 696 q 351 713 385 713 q 317 724 317 713 q 374 735 317 733 q 461 728 431 736 q 487 713 486 722 q 462 707 487 704 q 453 709 458 708 q 420 706 424 714 q 441 682 416 697 q 457 665 450 676 q 465 644 465 654 q 468 629 465 635 q 476 622 471 622 q 484 630 481 622 q 488 650 488 638 q 491 670 488 663 q 500 678 494 678 q 511 568 513 678 q 510 382 510 507 q 502 132 510 155 q 491 140 498 121 q 471 154 486 154 q 450 139 455 154 q 396 116 444 123 q 334 121 349 109 q 314 247 318 134 l 311 359 l 170 365 q 67 372 113 367 q 18 380 22 376 m 161 856 q 160 869 158 866 q 170 870 161 873 q 190 839 185 865 q 181 800 194 813 q 168 812 168 787 q 161 856 168 837 z "},"5":{"ha":528,"x_min":14,"x_max":513,"o":"m 14 366 l 18 610 q 28 864 21 855 q 220 872 34 874 q 412 861 406 871 q 441 849 420 849 q 457 852 450 849 q 464 861 464 856 q 475 872 464 872 q 484 789 488 872 l 481 707 l 243 684 l 246 627 q 258 563 250 570 q 370 550 269 553 q 488 557 472 547 q 513 564 508 569 q 512 470 517 560 q 504 396 509 410 q 485 388 500 383 q 464 383 464 395 q 469 374 464 378 q 481 371 474 371 q 496 350 494 371 q 496 246 498 328 q 477 107 492 121 q 258 95 463 93 q 35 111 53 96 q 24 186 21 123 l 28 252 l 169 255 q 247 258 220 256 q 295 263 273 260 q 324 276 316 267 q 335 296 332 285 q 338 327 338 307 l 338 359 l 14 366 z "},"6":{"ha":516,"x_min":14,"x_max":503,"o":"m 15 201 q 14 220 15 201 q 14 294 13 240 q 18 473 14 349 q 27 731 22 670 q 43 800 32 791 q 53 837 57 812 q 63 869 49 863 q 254 874 75 876 q 454 867 433 873 q 468 833 468 862 q 472 809 468 818 q 479 798 475 801 q 487 783 484 795 q 491 747 491 770 l 491 703 l 263 687 q 230 680 237 685 q 223 656 223 674 q 232 631 223 637 q 280 620 241 625 q 392 611 340 612 q 469 593 436 610 q 503 555 503 576 q 488 509 503 543 q 482 458 473 475 q 483 276 492 441 q 463 100 473 111 q 300 85 454 92 q 115 87 168 78 q 34 131 61 97 q 21 152 24 143 q 15 201 17 161 m 202 359 q 201 274 191 291 q 261 260 212 256 l 315 263 l 318 336 q 322 379 319 361 q 327 408 324 398 q 333 425 330 418 q 337 434 335 431 q 338 439 338 437 q 335 444 338 441 q 325 450 329 450 q 315 448 320 451 q 304 440 310 445 q 284 432 298 436 q 252 426 270 427 q 235 425 240 425 q 224 420 230 424 q 216 415 218 417 q 211 403 214 412 q 206 385 208 393 q 202 359 205 377 z "},"7":{"ha":511,"x_min":14,"x_max":496,"o":"m 18 753 q 14 825 12 784 q 25 892 16 865 q 62 901 31 909 q 178 890 83 897 q 358 878 273 884 q 448 867 444 872 q 450 855 452 865 q 442 837 448 846 q 436 815 431 819 q 484 797 441 810 q 496 474 500 792 q 475 140 492 156 q 462 134 467 132 q 450 147 456 135 q 438 162 442 160 q 429 159 434 164 q 416 147 423 153 q 390 136 408 140 q 348 135 372 132 q 292 151 302 141 q 289 162 289 154 q 290 194 288 170 q 294 249 292 217 q 298 346 296 281 q 299 489 300 411 l 298 692 l 201 697 q 168 699 189 698 q 38 711 55 705 q 21 732 24 716 q 19 742 20 734 q 18 753 18 749 z "},"8":{"ha":534,"x_min":14,"x_max":520,"o":"m 14 151 l 15 213 q 41 882 25 851 q 83 903 50 899 q 279 909 117 907 q 512 915 499 911 q 516 866 514 916 q 519 730 518 816 q 520 542 520 645 l 520 166 l 492 155 q 429 144 466 144 q 388 138 406 144 q 354 130 369 132 q 281 133 339 127 q 111 147 197 143 l 14 151 m 201 359 q 207 312 201 319 q 245 300 213 304 q 312 308 295 294 q 325 369 328 322 l 321 422 l 269 426 q 210 421 218 429 q 201 359 201 413 m 215 643 q 228 620 217 627 q 268 608 239 613 q 332 605 318 597 q 345 651 345 612 l 344 696 l 283 699 q 223 691 236 702 q 215 643 210 680 z "},"9":{"ha":515,"x_min":14,"x_max":500,"o":"m 14 201 q 15 248 14 231 q 23 276 16 264 q 39 291 31 288 q 67 295 47 294 q 108 293 88 296 q 168 289 128 291 q 247 286 208 286 q 316 290 304 286 q 337 317 329 294 q 314 384 355 366 q 134 407 273 401 q 57 416 71 409 q 32 460 36 425 q 33 578 30 484 q 54 850 40 827 q 61 857 58 856 q 83 856 65 857 q 123 853 105 854 q 187 850 140 852 q 290 849 234 849 q 444 846 419 849 q 469 827 469 843 q 475 810 469 817 q 487 804 480 804 q 500 781 499 804 q 496 648 502 759 q 486 342 490 482 q 477 169 481 208 q 458 115 472 130 q 428 98 446 102 q 366 95 411 94 q 201 103 321 96 q 127 109 155 106 q 77 116 100 111 q 43 127 54 121 q 25 143 33 132 q 15 167 17 155 q 14 201 14 180 m 230 639 q 308 597 230 577 q 339 622 331 604 q 342 655 347 640 q 330 672 337 670 q 273 684 304 681 q 237 682 242 688 q 230 639 230 675 z "},"\u0000":{"ha":1389,"x_min":0,"x_max":0,"o":""},"\r":{"ha":1389,"x_min":0,"x_max":0,"o":""}," ":{"ha":583,"x_min":0,"x_max":0,"o":""},"!":{"ha":223,"x_min":14,"x_max":210,"o":"m 14 370 l 21 423 q 28 654 28 477 l 28 830 l 110 823 q 201 808 191 815 q 210 650 210 803 q 201 434 210 498 l 194 377 l 14 370 m 15 126 q 18 161 16 133 q 43 280 30 279 q 56 263 49 280 q 67 251 60 252 q 82 252 75 249 q 102 251 90 255 q 125 232 114 247 q 141 215 136 217 q 153 221 147 212 q 171 212 161 234 q 176 201 174 208 q 180 133 193 162 q 130 96 168 104 q 90 93 100 92 q 64 99 80 94 q 35 103 49 103 q 15 126 12 104 z "},"#":{"ha":14,"x_min":0,"x_max":0,"o":""},"$":{"ha":14,"x_min":0,"x_max":0,"o":""},"%":{"ha":14,"x_min":0,"x_max":0,"o":""},"&":{"ha":14,"x_min":0,"x_max":0,"o":""},"'":{"ha":14,"x_min":0,"x_max":0,"o":""},"(":{"ha":14,"x_min":0,"x_max":0,"o":""},")":{"ha":14,"x_min":0,"x_max":0,"o":""},"*":{"ha":14,"x_min":0,"x_max":0,"o":""},"+":{"ha":547,"x_min":16,"x_max":532,"o":"m 16 394 q 24 412 12 400 q 16 549 51 439 q 23 575 11 566 q 51 583 35 583 q 78 577 68 583 q 116 566 87 573 q 175 557 146 559 q 208 567 203 555 q 229 657 227 633 q 220 691 231 682 q 211 714 205 704 q 267 724 217 724 q 323 713 317 723 q 335 705 326 708 q 353 701 344 701 q 384 684 374 701 q 398 616 393 666 l 404 559 l 454 551 q 523 523 510 541 q 532 445 536 505 l 528 377 l 395 366 l 370 263 l 210 263 l 199 377 l 119 380 q 16 394 24 384 z "},",":{"ha":205,"x_min":14,"x_max":192,"o":"m 19 -77 q 14 -67 15 -75 q 15 -42 13 -60 q 19 -2 16 -24 q 26 64 22 20 q 33 155 30 107 l 39 275 l 70 271 q 102 280 98 267 q 90 297 104 288 q 85 314 79 304 q 105 324 94 324 q 126 313 117 323 q 131 290 136 302 q 159 261 125 274 q 164 259 161 260 q 186 243 180 254 q 192 185 191 233 q 183 37 193 138 l 176 -42 l 103 -62 q 19 -77 31 -83 z "},"-":{"ha":477,"x_min":20,"x_max":464,"o":"m 20 368 q 26 439 8 380 q 37 519 43 498 q 36 539 33 535 q 50 538 38 543 q 257 530 68 531 q 355 529 321 530 q 410 526 389 528 q 435 520 431 524 q 438 511 440 517 q 451 455 432 495 q 464 417 465 427 q 447 385 463 406 l 424 354 l 229 355 q 20 368 33 355 z "},".":{"ha":247,"x_min":14,"x_max":234,"o":"m 14 96 q 23 191 12 100 q 39 287 35 282 q 127 283 42 290 q 222 274 212 277 q 234 224 235 265 q 225 141 232 184 q 217 96 219 99 q 115 87 211 87 q 14 96 20 87 z "},"/":{"ha":525,"x_min":14,"x_max":511,"o":"m 14 108 l 21 144 q 28 213 28 182 q 44 252 28 241 q 83 262 60 264 q 130 257 106 261 q 172 254 153 253 q 193 267 190 255 q 213 389 204 303 q 225 562 222 475 q 225 670 228 650 q 208 692 223 690 q 184 707 186 696 q 197 720 182 717 q 268 712 224 726 q 335 711 314 697 q 360 773 356 725 q 359 810 361 794 q 353 832 357 826 q 346 844 349 838 q 340 852 342 850 q 342 861 339 854 q 471 850 349 874 l 511 842 l 511 696 l 472 688 q 426 684 443 682 q 399 686 409 686 q 386 675 390 685 q 376 550 380 661 q 367 340 373 439 q 349 243 361 241 q 330 240 339 245 q 306 230 321 235 q 263 229 290 224 l 222 237 l 220 193 q 218 132 219 155 q 196 118 217 122 q 115 112 176 114 l 14 108 z "},":":{"ha":232,"x_min":14,"x_max":218,"o":"m 21 211 q 14 227 13 216 q 20 244 16 237 q 29 269 25 251 q 31 309 33 288 l 25 349 l 99 345 q 183 330 173 340 q 196 256 191 323 q 194 183 201 190 q 109 189 187 176 q 21 211 30 202 m 30 513 l 34 570 q 39 616 36 600 q 52 641 43 633 q 67 651 61 649 q 93 654 74 652 q 98 654 96 654 q 110 659 105 655 q 115 668 115 663 q 83 677 115 679 q 51 681 53 675 q 53 690 50 684 q 90 701 58 698 q 153 697 122 704 q 184 675 184 691 q 203 650 184 663 q 218 630 216 641 q 210 586 219 618 q 208 522 197 535 q 213 508 219 508 l 198 508 q 191 512 193 508 q 188 524 189 515 q 185 536 186 532 q 180 538 182 538 q 169 535 178 538 q 149 529 159 532 q 120 523 139 526 q 80 517 101 519 l 30 513 z "},";":{"ha":230,"x_min":14,"x_max":216,"o":"m 23 52 q 14 190 14 60 q 22 342 14 319 q 71 353 26 353 q 142 343 115 353 q 174 353 159 336 q 199 364 186 368 q 202 347 211 361 q 209 319 195 336 q 216 288 217 315 q 212 238 216 262 q 202 176 208 215 q 197 106 197 136 q 182 44 197 54 q 100 38 167 35 q 23 52 34 41 m 45 528 q 50 608 40 536 q 67 691 60 679 q 143 697 75 702 l 212 692 l 212 643 q 210 558 212 615 l 209 524 l 130 522 q 72 523 98 521 q 45 528 47 525 z "},"<":{"ha":14,"x_min":0,"x_max":0,"o":""},"=":{"ha":521,"x_min":14,"x_max":506,"o":"m 14 183 l 16 223 q 21 313 18 245 l 23 362 l 201 359 q 506 323 487 353 q 498 309 510 316 q 490 288 493 305 q 486 251 486 271 q 471 200 486 200 q 441 184 454 200 q 298 162 428 168 q 94 170 169 157 l 14 183 m 26 490 q 35 579 26 499 q 32 660 43 646 q 28 683 20 675 q 46 689 35 690 q 85 677 58 688 q 278 655 117 665 q 338 651 314 653 q 386 647 363 649 q 424 641 410 644 q 451 634 438 638 q 471 625 465 631 q 483 614 477 620 q 490 598 488 608 q 491 579 491 589 q 490 555 491 570 q 475 492 484 500 q 348 474 463 479 q 157 476 233 468 q 48 473 62 486 q 26 490 26 454 z "},">":{"ha":14,"x_min":0,"x_max":0,"o":""},"?":{"ha":504,"x_min":14,"x_max":491,"o":"m 14 635 l 14 729 q 18 827 14 823 q 126 831 20 829 q 347 829 233 833 q 476 814 461 826 q 491 774 490 802 q 485 684 492 747 q 477 568 477 621 l 476 519 l 309 519 l 316 480 q 316 443 320 450 q 306 428 313 436 q 298 408 298 420 q 293 395 298 400 q 276 388 288 391 q 253 385 264 386 q 223 382 242 384 q 191 380 203 381 q 171 390 175 378 q 168 456 168 401 q 168 495 168 484 q 170 517 169 506 q 175 532 170 529 q 184 538 180 536 q 201 545 189 541 q 290 549 237 555 q 339 550 335 544 q 322 593 344 556 q 294 623 309 616 q 229 636 279 630 q 85 640 154 645 l 14 635 m 151 75 l 151 128 q 156 173 151 154 q 169 201 162 193 q 180 215 175 209 q 182 223 184 220 q 170 230 180 226 q 156 238 162 233 q 151 247 151 243 q 226 254 151 256 q 311 241 307 253 q 296 232 312 237 q 302 200 283 228 q 314 148 315 175 q 304 100 312 121 l 295 79 q 194 73 285 68 l 151 75 z "},"@":{"ha":826,"x_min":19,"x_max":812,"o":"m 54 119 q 19 127 32 109 q 20 170 7 146 q 37 428 33 195 q 43 627 39 580 q 62 699 47 675 q 98 732 89 746 q 100 718 100 728 q 104 706 100 711 q 112 701 107 701 q 120 706 117 701 q 123 718 123 711 q 132 731 123 725 q 155 738 141 736 q 173 741 168 739 q 182 751 178 743 q 187 772 186 760 q 189 813 188 784 l 193 886 l 421 879 q 657 865 651 871 q 664 788 664 859 l 664 718 l 812 718 l 811 487 q 800 246 810 256 q 790 240 794 241 q 773 242 785 239 q 745 247 762 244 q 693 254 729 250 q 613 260 658 258 q 524 267 536 262 q 509 294 507 273 q 517 346 509 302 q 508 403 526 389 q 429 415 489 418 q 377 415 394 414 q 349 429 360 417 q 337 459 338 441 q 337 515 336 477 q 328 604 340 589 q 348 629 309 629 q 435 618 375 629 l 524 604 l 529 530 q 546 447 534 467 q 589 431 557 427 l 618 434 l 622 562 q 622 663 624 635 q 610 691 619 690 q 451 697 598 692 q 268 704 304 702 l 224 707 l 220 431 q 228 147 215 155 q 259 140 236 142 q 361 133 283 138 q 534 117 440 127 l 664 104 l 660 41 q 650 -32 656 -22 q 534 -35 647 -39 q 283 -21 421 -32 q 178 -7 195 -14 q 157 24 160 1 q 155 56 156 33 q 146 108 152 100 q 112 121 141 117 q 54 119 73 127 m 222 745 q 232 735 227 736 q 237 747 237 735 q 225 758 237 758 q 222 745 214 758 z "},"A":{"ha":1105,"x_min":14,"x_max":1092,"o":"m 15 -7 q 18 88 16 38 q 23 231 20 138 q 29 411 27 323 q 53 921 40 812 l 60 977 l 518 972 q 770 970 689 971 q 906 966 850 969 q 977 960 962 964 q 999 949 991 956 q 1033 935 1014 935 q 1040 936 1036 936 q 1077 928 1063 939 q 1089 884 1086 920 q 1092 802 1092 855 q 1091 768 1092 787 q 1087 601 1090 690 q 1082 359 1085 512 q 1077 62 1078 206 q 1077 16 1077 31 q 1075 -20 1077 1 q 1073 -50 1074 -41 q 1067 -71 1072 -58 q 1060 -87 1063 -83 q 1049 -96 1058 -90 q 1033 -103 1040 -102 q 1012 -105 1027 -103 q 986 -106 997 -106 q 952 -104 975 -105 l 860 -101 l 848 285 l 814 295 q 521 304 783 304 q 250 295 259 304 q 243 234 247 292 q 237 100 239 176 q 231 -61 235 -29 q 211 -103 227 -92 q 127 -117 191 -117 q 113 -117 121 -117 q 22 -99 35 -115 q 15 -73 16 -93 q 14 -37 14 -60 q 15 -7 14 -24 m 248 528 q 534 519 252 521 q 614 519 578 519 q 836 526 819 519 q 854 589 854 532 q 857 628 854 611 q 865 644 861 644 q 877 678 877 644 l 877 713 l 618 711 q 307 703 355 709 l 256 696 l 250 616 q 245 548 245 570 q 248 528 245 532 z "},"B":{"ha":1111,"x_min":14,"x_max":1097,"o":"m 14 189 q 14 297 14 244 q 22 661 14 507 q 39 895 33 857 q 62 941 44 933 q 239 949 78 947 q 555 953 401 952 q 713 958 710 954 q 798 959 729 959 q 803 960 800 959 q 960 951 869 960 q 1083 927 1055 942 q 1097 906 1097 920 q 1088 880 1096 893 q 1077 852 1080 867 q 1086 825 1075 837 q 1097 781 1096 817 q 1097 759 1098 772 q 1094 656 1097 722 l 1086 502 l 881 491 l 873 411 q 871 362 871 385 q 871 351 871 357 q 876 321 872 326 q 974 304 884 312 l 1063 297 l 1067 240 q 1080 166 1071 183 q 1090 45 1089 149 q 1090 18 1090 31 q 1083 -90 1090 -64 l 1074 -124 l 903 -120 q 627 -116 820 -118 q 286 -112 433 -114 q 124 -109 138 -110 q 98 -110 115 -108 q 68 -114 81 -112 q 43 -116 55 -116 q 29 -111 32 -115 q 14 189 17 -91 m 252 182 l 255 92 l 397 85 q 693 74 530 78 l 847 71 l 847 297 l 554 300 q 439 300 489 300 q 316 298 353 300 q 254 288 258 296 q 250 239 250 278 q 252 182 250 216 m 252 606 l 255 525 l 859 515 l 866 593 q 878 701 873 666 l 881 728 l 659 730 q 599 730 627 730 q 378 724 454 730 q 267 701 286 718 q 252 673 255 693 q 251 639 250 661 q 252 606 251 625 z "},"C":{"ha":1091,"x_min":14,"x_max":1077,"o":"m 14 -94 q 16 -40 14 -79 q 27 263 23 102 q 44 807 37 681 q 66 946 52 933 q 117 961 77 956 q 229 966 156 966 q 264 966 247 966 q 369 966 319 967 q 549 962 437 964 q 736 960 661 960 q 982 955 924 958 q 1050 941 1041 951 q 1070 832 1066 924 l 1074 741 l 668 741 q 248 728 261 741 q 233 425 235 715 q 233 350 233 385 q 243 121 233 132 q 631 108 258 108 q 772 109 696 108 q 812 109 793 109 q 952 106 916 110 q 1022 88 996 102 q 1059 58 1052 73 q 1073 -15 1066 44 q 1077 -73 1077 -50 q 1069 -111 1077 -102 q 935 -122 1061 -119 q 864 -122 899 -123 q 693 -118 775 -122 q 494 -117 663 -117 q 175 -116 326 -117 q 19 -112 25 -115 q 14 -94 14 -109 z "},"D":{"ha":1090,"x_min":14,"x_max":1076,"o":"m 14 -113 l 15 382 q 27 912 16 876 q 44 941 35 934 q 83 949 54 947 q 151 958 103 951 q 281 968 199 966 q 408 970 330 970 q 527 970 461 970 q 758 964 701 968 q 838 947 814 960 q 865 928 859 937 q 867 909 872 920 q 852 859 852 873 q 860 849 852 849 q 869 835 865 849 q 876 801 874 821 l 879 753 l 939 756 q 964 758 954 758 q 995 754 983 757 q 1038 734 1014 750 l 1076 708 l 1070 417 q 1061 112 1064 125 q 987 98 1057 98 q 942 97 958 98 q 911 92 926 96 q 890 82 897 87 q 880 62 884 76 q 874 33 875 48 q 873 -10 873 18 q 862 -96 873 -96 q 854 -91 857 -96 q 850 -79 850 -85 q 844 -62 850 -62 q 823 -79 837 -62 q 817 -85 820 -82 q 748 -107 802 -104 q 406 -112 694 -111 l 14 -113 m 225 216 q 235 116 227 121 q 484 108 248 108 q 541 109 511 109 q 842 119 833 110 q 848 303 848 125 q 848 429 848 358 l 845 730 l 547 732 q 426 733 479 733 q 241 724 247 733 q 235 627 239 721 q 227 422 231 533 q 224 271 224 342 q 225 216 224 243 z "},"E":{"ha":1067,"x_min":14,"x_max":1054,"o":"m 14 132 q 14 150 14 141 q 26 598 14 326 q 51 926 40 884 q 119 966 60 960 q 199 968 144 968 q 402 964 273 968 q 741 956 601 959 q 1000 951 981 951 q 1008 936 1008 951 q 1015 923 1008 929 q 1031 914 1021 917 q 1050 870 1047 910 q 1054 631 1054 830 l 1054 354 l 1023 340 q 924 327 1002 330 q 684 322 846 323 q 399 315 522 320 q 311 311 342 313 q 261 307 281 309 q 237 300 242 304 q 234 292 233 297 q 245 183 239 275 l 252 92 l 319 85 q 547 78 366 80 q 884 74 728 76 q 1045 66 1039 72 q 1053 9 1053 58 q 1052 -28 1053 -7 l 1048 -113 l 838 -115 q 720 -116 781 -116 q 321 -110 536 -116 l 14 -101 l 14 132 m 237 621 l 240 536 l 286 535 q 570 532 429 532 q 651 532 610 532 q 840 540 833 533 q 846 574 844 544 q 848 614 848 593 q 847 640 848 627 l 843 730 l 545 732 q 427 733 477 733 q 302 731 339 732 q 239 720 244 728 q 235 671 235 710 q 237 621 235 650 z "},"F":{"ha":1091,"x_min":14,"x_max":1078,"o":"m 15 464 q 31 954 19 941 q 220 966 41 966 q 274 966 245 966 q 834 954 607 963 q 1069 936 1061 945 q 1076 896 1073 930 q 1078 838 1078 869 q 1078 820 1078 829 q 1072 734 1076 749 q 1053 722 1068 720 q 883 731 1019 726 q 718 735 776 735 q 690 735 702 735 q 683 735 686 735 q 602 749 610 735 q 588 759 597 758 q 559 751 578 759 q 467 743 537 743 q 396 745 436 743 q 320 747 343 746 q 311 748 315 747 q 271 745 292 748 q 239 736 245 741 q 224 715 232 732 q 217 683 217 699 q 218 633 217 667 q 233 530 219 542 q 530 511 247 518 q 804 498 755 506 q 869 465 857 490 q 876 399 876 450 q 861 326 876 326 q 859 326 860 326 q 847 338 854 328 q 839 342 845 342 q 804 328 828 342 q 729 308 780 313 q 506 298 677 303 q 237 285 243 289 q 229 113 229 279 q 218 -64 229 -54 q 155 -87 199 -83 q 135 -88 144 -87 q 71 -78 102 -88 q 22 -42 31 -65 q 14 237 14 -21 q 15 464 14 334 z "},"G":{"ha":1090,"x_min":14,"x_max":1077,"o":"m 15 39 q 14 109 14 60 q 17 420 14 208 q 19 559 18 493 q 21 671 20 626 q 23 755 22 716 q 24 819 24 795 q 25 863 24 844 q 26 894 26 883 q 26 913 26 905 q 25 926 26 921 q 23 934 24 931 q 21 943 23 937 q 19 970 16 963 q 38 985 22 978 q 67 990 50 989 q 71 990 69 990 q 104 987 87 990 q 168 983 124 985 q 222 982 193 982 q 262 983 242 982 q 497 986 418 986 q 545 986 526 986 q 619 985 584 985 q 673 985 648 985 q 843 987 770 987 q 1070 969 1052 987 q 1077 928 1077 962 q 1074 874 1077 907 q 1064 802 1069 818 q 1037 775 1058 786 q 822 757 1010 762 q 443 747 633 752 q 224 728 252 743 q 206 716 212 722 q 199 704 200 711 q 200 691 198 697 q 204 671 201 684 q 206 643 206 657 q 223 610 206 610 q 235 605 230 610 q 240 593 240 600 q 235 581 240 587 q 223 576 230 576 q 211 572 216 576 q 206 564 206 569 q 211 554 206 559 q 223 546 216 549 q 240 517 243 538 q 217 496 237 496 q 195 473 195 496 q 199 457 195 464 q 209 451 203 451 q 227 366 224 451 q 227 325 227 341 q 226 294 227 302 q 210 279 223 280 q 195 277 195 279 q 209 267 195 275 q 224 245 220 260 q 229 194 229 229 q 233 142 229 153 q 254 127 237 130 q 556 115 279 122 l 832 107 l 844 138 q 853 221 853 164 q 852 256 853 237 l 849 342 l 707 344 q 567 346 613 345 q 489 349 520 347 q 451 352 458 350 q 448 356 445 353 q 447 376 456 363 q 441 416 441 383 q 444 472 441 438 l 450 555 l 707 559 q 996 564 941 562 q 1000 564 998 564 q 1050 547 1029 564 q 1067 513 1067 532 q 1065 503 1067 508 q 1055 230 1062 488 q 1042 -58 1048 -28 l 1034 -98 l 958 -91 q 470 -82 895 -85 l 57 -80 l 34 -48 q 15 39 17 -25 m 1021 886 q 1019 880 1019 883 q 1027 867 1019 873 q 1038 862 1033 862 q 1046 865 1042 862 q 1048 870 1048 867 q 1045 878 1048 873 q 1034 890 1040 886 q 1029 890 1031 890 q 1021 886 1025 890 z "},"H":{"ha":1127,"x_min":14,"x_max":1114,"o":"m 16 -155 q 14 -138 14 -151 q 20 -81 14 -118 q 34 105 31 -22 q 35 270 35 165 q 33 570 35 390 l 31 923 l 130 926 q 162 927 147 927 q 250 916 235 927 q 268 868 263 907 q 279 701 273 829 l 288 502 l 857 502 l 857 954 l 977 946 q 1104 930 1096 939 q 1114 808 1113 922 q 1114 787 1114 799 q 1107 334 1114 665 l 1098 -121 l 1072 -130 q 957 -144 1046 -140 l 868 -147 l 868 275 l 806 272 q 509 260 549 262 l 276 252 l 275 212 q 273 110 273 167 q 271 18 272 53 q 269 -52 271 -17 q 265 -106 268 -86 q 256 -133 262 -125 q 187 -156 245 -148 q 83 -163 134 -163 q 75 -163 79 -163 q 16 -155 20 -162 z "},"I":{"ha":673,"x_min":14,"x_max":659,"o":"m 16 -52 q 14 -27 15 -43 q 16 16 14 -9 q 26 106 22 94 q 119 123 30 119 l 208 126 l 216 371 q 220 499 218 431 q 225 621 223 568 q 227 684 227 675 l 230 753 l 136 760 q 35 773 39 767 q 29 817 29 779 q 30 859 28 834 q 43 954 34 936 q 94 971 51 968 q 313 977 138 975 q 616 983 546 979 l 659 986 l 651 886 q 632 773 644 787 q 528 756 621 760 l 435 753 l 439 699 q 439 678 439 687 q 427 644 439 644 q 426 635 414 644 q 439 624 438 626 q 432 622 439 622 q 422 615 426 622 q 418 599 418 608 q 421 583 418 589 q 428 576 424 576 q 440 558 433 576 q 449 523 448 541 q 436 494 450 505 q 416 425 416 484 q 435 349 416 368 q 447 330 447 336 q 436 315 448 323 q 419 269 421 302 q 431 232 417 237 q 441 215 437 230 q 446 182 446 201 l 446 138 l 651 138 l 648 58 q 638 -13 645 7 q 610 -54 632 -32 q 577 -79 589 -75 q 542 -79 564 -83 q 517 -75 528 -75 q 498 -83 503 -75 q 274 -102 491 -95 q 110 -106 158 -106 q 83 -106 91 -106 q 34 -85 52 -103 q 16 -52 19 -69 z "},"J":{"ha":804,"x_min":14,"x_max":791,"o":"m 14 -158 l 14 -64 q 18 5 14 -26 q 26 40 21 36 q 310 60 37 50 l 583 69 l 589 415 q 591 656 591 570 q 587 765 591 762 q 400 770 583 768 q 201 781 217 773 q 183 845 187 789 q 180 920 180 884 q 180 954 180 937 q 184 1009 182 1006 q 275 1016 187 1013 q 481 1019 362 1019 q 553 1019 520 1019 q 735 1017 703 1019 q 784 996 775 1014 q 791 804 791 983 q 789 536 791 699 q 770 73 782 96 q 746 57 764 62 q 683 50 727 52 l 606 47 l 595 -158 l 14 -158 z "},"K":{"ha":1111,"x_min":14,"x_max":1097,"o":"m 14 -60 q 14 -49 14 -54 q 16 -1 14 -27 q 26 428 20 49 q 39 863 33 806 l 47 941 l 138 941 q 149 941 141 941 q 183 941 172 941 q 186 941 184 941 q 210 939 195 941 q 232 936 226 936 q 247 928 237 936 q 258 918 256 921 q 265 900 260 915 q 270 877 270 885 q 272 845 271 869 q 272 806 273 821 q 271 755 271 791 q 271 740 271 745 q 270 671 270 702 q 279 553 270 562 q 482 543 289 543 q 584 544 528 543 l 877 547 l 882 728 q 886 837 884 800 q 891 898 888 873 q 899 923 894 922 q 911 922 903 923 q 937 928 922 916 q 998 939 949 939 q 1025 938 1010 939 l 1097 935 l 1097 780 q 1093 641 1097 669 q 1068 582 1089 613 q 1035 545 1048 552 q 981 536 1021 538 q 912 525 927 533 q 898 491 898 517 q 892 469 898 480 q 877 452 886 457 q 861 431 863 444 q 863 405 859 418 q 867 373 867 391 q 854 339 866 355 q 829 322 844 327 q 779 315 813 317 q 730 315 755 315 q 703 315 717 315 q 680 315 692 315 q 579 313 640 315 q 409 306 498 311 l 278 297 l 269 132 q 259 -57 259 -50 q 241 -78 258 -74 q 143 -87 224 -82 q 50 -90 81 -90 q 18 -87 22 -90 q 14 -60 15 -85 m 872 292 q 873 329 872 325 q 884 333 875 333 q 891 332 887 333 q 997 326 936 326 q 1069 322 1058 326 q 1076 300 1081 318 q 1081 262 1070 275 q 1088 167 1088 254 q 1088 159 1088 163 q 1080 -48 1088 64 q 1065 -71 1078 -68 q 1034 -72 1057 -72 q 979 -71 1013 -72 l 881 -67 l 876 126 q 872 292 872 242 z "},"L":{"ha":907,"x_min":13,"x_max":893,"o":"m 15 -37 q 13 68 13 -30 q 16 456 14 191 q 37 961 22 933 q 64 983 47 979 q 97 985 73 985 q 145 983 116 985 q 225 976 211 981 q 245 951 240 972 q 250 829 250 934 q 250 814 250 822 q 247 559 250 694 q 245 390 245 469 q 245 313 245 350 q 255 195 247 201 q 551 181 265 189 q 855 165 836 172 q 875 142 873 158 q 873 114 877 126 q 881 92 869 102 q 893 36 893 85 q 892 23 892 30 q 878 -50 891 -38 q 522 -63 863 -61 q 313 -64 401 -64 q 65 -60 104 -64 q 18 -44 24 -57 q 15 -37 16 -41 z "},"M":{"ha":1082,"x_min":14,"x_max":1068,"o":"m 15 271 q 14 492 14 395 q 17 753 14 665 l 24 935 l 155 942 q 269 946 220 946 q 353 942 319 945 l 422 935 l 431 841 q 446 735 438 746 q 506 724 452 724 q 521 724 513 724 q 594 739 589 726 q 603 849 597 747 q 615 962 608 950 q 699 972 625 972 q 800 968 741 971 q 1023 945 971 960 q 1061 834 1054 936 q 1066 415 1066 749 q 1066 272 1066 349 q 1062 43 1065 96 q 1048 -21 1059 -9 q 1038 -33 1040 -29 q 1039 -37 1036 -36 q 1051 -39 1042 -39 q 1068 -43 1068 -40 q 1067 -44 1068 -43 q 994 -58 1057 -52 q 956 -60 972 -60 q 872 -63 888 -60 q 861 -57 866 -64 q 853 -28 857 -50 q 847 26 849 -7 q 843 111 844 58 q 840 229 841 163 q 839 387 840 295 q 833 700 838 692 q 731 711 828 709 q 696 711 711 711 q 629 705 633 711 q 621 510 623 694 l 618 326 l 583 324 q 513 320 558 323 q 490 319 499 319 q 472 320 481 319 q 458 324 463 320 q 448 331 453 328 q 439 343 442 334 q 434 360 437 351 q 429 384 431 368 q 426 414 427 399 q 422 453 425 429 q 412 633 414 578 l 411 696 l 360 703 q 311 707 332 707 q 283 705 294 707 q 260 670 264 701 q 256 460 257 639 q 256 441 256 448 q 255 279 255 351 q 256 154 255 208 q 256 61 256 100 q 256 24 256 41 q 256 -5 256 8 q 255 -50 256 -33 q 252 -76 254 -66 q 245 -90 250 -85 q 183 -106 236 -100 q 120 -109 151 -109 q 79 -108 99 -109 q 24 -94 27 -104 q 15 271 18 -73 z "},"N":{"ha":871,"x_min":14,"x_max":857,"o":"m 15 478 q 20 880 16 780 q 33 992 23 981 q 61 1005 41 1002 q 94 1008 77 1008 q 104 1008 99 1008 q 150 1005 127 1006 q 188 1005 173 1004 q 203 1012 203 1006 q 239 1018 202 1017 q 279 1019 257 1019 q 328 1018 302 1019 q 434 1014 381 1017 q 527 1007 488 1011 q 572 998 567 1002 q 604 986 583 986 q 624 963 624 986 q 619 947 624 954 q 607 941 614 941 q 592 933 596 941 q 592 916 588 925 q 608 902 597 906 q 621 887 618 898 q 618 848 623 876 q 616 812 614 823 q 628 792 617 800 q 661 785 638 784 q 720 787 683 786 q 754 789 739 789 q 815 779 796 789 q 850 722 841 766 q 857 326 857 684 l 857 -33 l 743 -33 q 595 -16 607 -32 q 599 -1 591 -10 q 613 376 609 11 q 614 564 614 486 q 608 757 614 745 q 475 766 602 766 q 427 766 453 766 l 254 764 l 252 379 q 237 -22 250 -6 q 142 -38 226 -35 q 117 -39 129 -39 q 33 -28 54 -39 q 16 54 19 -20 q 14 260 15 100 q 15 478 14 351 z "},"O":{"ha":1097,"x_min":14,"x_max":1083,"o":"m 14 -90 l 14 166 q 38 946 15 923 q 249 968 50 958 q 416 973 356 973 q 488 969 469 973 q 532 967 510 967 q 567 968 549 967 q 714 977 606 971 q 910 984 823 983 l 1043 986 l 1062 949 q 1078 868 1074 926 q 1082 633 1082 809 q 1083 512 1083 572 q 1080 193 1082 347 q 1071 -41 1076 -19 q 1052 -58 1067 -52 q 996 -66 1036 -63 q 663 -83 895 -75 q 253 -90 431 -90 l 14 -90 m 250 439 l 253 149 l 355 151 q 470 152 392 151 q 609 153 547 153 q 736 155 671 154 q 839 159 801 157 q 878 165 876 161 q 887 463 884 172 l 890 753 l 574 753 q 252 741 256 753 q 249 629 249 736 q 250 439 249 557 z "},"P":{"ha":1123,"x_min":14,"x_max":1109,"o":"m 14 -147 l 18 382 q 23 763 19 608 q 33 923 28 918 q 160 937 41 932 q 450 943 278 941 q 614 943 535 943 q 765 943 693 943 q 1023 941 909 942 q 1062 933 1051 940 q 1083 903 1072 927 q 1107 718 1101 864 q 1109 635 1109 670 q 1100 536 1109 560 q 1087 453 1088 509 q 1082 353 1086 397 q 1061 296 1079 309 q 850 281 1044 283 q 466 279 655 279 q 269 272 276 279 q 252 60 260 263 q 250 33 251 51 q 248 -62 248 -35 q 237 -120 247 -89 q 225 -158 228 -152 q 195 -170 222 -165 q 166 -174 178 -174 q 153 -172 159 -174 q 85 -159 138 -169 q 65 -156 72 -157 l 14 -147 m 236 485 l 398 484 q 697 481 548 484 l 833 479 l 842 568 q 845 638 845 611 q 841 680 845 668 q 795 700 835 696 q 559 705 755 703 q 380 706 450 706 q 265 703 277 706 q 254 697 258 702 q 251 688 251 693 q 252 677 252 683 q 254 667 253 671 q 254 659 256 662 q 248 656 252 656 q 236 570 236 656 l 236 485 z "},"Q":{"ha":986,"x_min":14,"x_max":972,"o":"m 14 536 q 22 1011 17 1002 q 342 1019 28 1019 q 464 1019 397 1019 q 925 1007 899 1017 q 963 983 954 996 q 972 682 972 968 q 972 533 972 615 q 958 57 969 102 l 943 5 l 875 12 q 699 20 819 18 l 591 23 l 579 -158 l 511 -165 q 454 -168 477 -168 q 414 -164 428 -168 q 389 -145 393 -159 q 380 -66 384 -131 l 374 24 l 205 31 q 24 50 37 37 q 14 379 14 65 q 14 536 14 450 m 215 252 l 282 254 q 323 255 310 254 q 349 259 336 256 q 367 266 363 263 q 375 280 371 269 q 379 300 379 290 q 380 330 380 309 q 381 367 380 353 q 387 392 382 380 q 398 409 392 404 q 419 416 405 414 q 450 419 433 419 q 495 417 467 419 l 579 411 l 583 341 q 589 288 584 312 q 600 260 594 264 q 681 244 612 250 q 710 243 697 243 q 768 257 754 243 q 779 475 779 275 q 779 530 779 500 q 764 787 777 783 q 488 798 745 793 q 329 799 390 799 q 227 795 229 799 q 218 519 222 787 l 215 252 z "},"R":{"ha":1114,"x_min":14,"x_max":1100,"o":"m 14 -101 l 14 280 q 20 638 14 600 q 31 658 23 658 q 34 658 33 658 q 54 667 54 654 q 48 675 54 671 q 37 678 43 678 q 20 724 20 678 q 28 773 19 755 q 35 812 35 785 q 33 844 35 826 q 31 878 32 864 q 33 901 31 892 q 52 932 37 917 l 75 958 l 523 954 q 813 950 718 951 q 971 943 909 948 q 1047 932 1034 939 q 1058 914 1060 926 q 1059 901 1057 907 q 1066 895 1061 895 q 1075 900 1071 895 q 1078 912 1078 905 q 1082 924 1078 919 q 1090 929 1085 929 q 1099 920 1097 929 q 1100 895 1100 914 q 1091 671 1100 840 q 1088 622 1090 658 q 1057 333 1076 376 l 1038 289 l 879 297 l 876 224 q 875 196 875 209 q 884 140 875 149 q 983 125 893 131 q 1080 112 1073 119 q 1088 45 1088 104 q 1087 0 1088 26 l 1084 -101 l 663 -101 l 652 286 l 543 292 q 439 294 489 294 q 344 292 389 294 l 253 286 l 247 101 q 229 -96 241 -84 q 157 -105 220 -105 q 115 -104 138 -105 l 14 -101 m 31 565 q 42 553 31 553 q 54 565 54 553 q 42 576 54 576 q 31 565 31 576 m 266 602 l 276 525 l 560 518 q 804 513 733 513 q 852 515 848 513 q 858 581 858 518 q 858 608 858 593 l 857 696 l 657 704 q 496 714 556 708 q 421 725 435 720 q 388 732 407 729 q 336 735 369 735 q 269 710 282 735 q 261 665 261 696 q 266 602 261 639 m 1055 849 q 1059 833 1055 840 q 1067 827 1062 827 q 1075 833 1072 827 q 1078 849 1078 840 q 1075 865 1078 859 q 1067 872 1072 872 q 1059 865 1062 872 q 1055 849 1055 859 z "},"S":{"ha":1100,"x_min":14,"x_max":1086,"o":"m 14 -9 l 14 98 l 433 91 q 673 87 578 88 q 861 97 856 87 q 876 191 873 116 q 877 223 877 209 q 869 273 877 268 q 456 285 856 281 q 113 291 176 288 q 40 310 51 295 q 26 372 27 328 q 24 481 25 396 q 25 654 24 549 q 30 847 26 796 q 44 913 33 897 q 88 937 57 933 q 275 944 119 941 q 456 945 353 945 q 753 943 586 945 q 1070 935 1054 940 q 1084 890 1080 930 q 1086 854 1085 871 q 1083 810 1086 833 q 1068 770 1078 770 q 1055 764 1061 770 q 1047 749 1049 758 q 985 729 1044 734 q 656 720 926 725 q 382 711 500 717 q 261 703 264 706 q 254 648 254 696 q 255 609 254 631 l 258 525 l 1078 513 l 1081 208 q 1082 63 1082 123 q 1079 -75 1082 -56 q 1069 -92 1076 -92 q 1061 -90 1066 -92 q 1043 -90 1047 -86 q 1038 -112 1038 -94 l 1038 -141 l 734 -140 q 520 -139 625 -139 q 352 -139 416 -139 q 229 -140 288 -140 q 178 -140 200 -140 q 138 -140 155 -140 q 82 -139 107 -140 q 45 -136 56 -138 q 30 -130 35 -134 q 14 -9 14 -116 z "},"T":{"ha":1072,"x_min":14,"x_max":1058,"o":"m 14 849 q 25 943 14 930 q 176 960 34 951 q 593 969 332 969 q 695 969 642 969 q 1042 955 1029 967 q 1057 836 1056 941 l 1058 731 l 1018 722 q 852 712 991 715 q 694 702 713 709 l 669 692 l 660 342 q 637 -54 651 -5 l 624 -101 l 530 -100 q 424 -87 436 -99 q 410 327 410 -73 l 409 728 l 267 726 q 237 726 251 726 q 24 757 56 726 q 14 840 14 767 q 14 849 14 844 z "},"U":{"ha":1119,"x_min":14,"x_max":1105,"o":"m 14 68 q 14 93 14 76 q 15 144 15 126 q 27 469 16 298 q 38 770 38 640 q 52 949 38 936 q 130 963 64 962 q 143 963 137 963 q 203 953 197 963 q 214 947 205 949 q 232 948 222 945 q 246 942 243 951 q 254 732 254 922 q 254 562 254 686 q 257 250 254 336 q 269 157 260 164 q 568 144 283 146 l 853 142 l 853 402 q 853 432 853 417 q 861 785 853 618 q 879 977 869 966 q 913 984 884 981 q 992 990 943 987 q 1059 995 1042 994 q 1063 995 1061 995 q 1097 973 1086 995 q 1105 709 1105 957 q 1104 443 1105 599 q 1086 -77 1099 -64 q 838 -94 1076 -87 q 309 -101 600 -101 q 245 -101 286 -101 q 224 -101 235 -101 q 79 -94 111 -101 q 24 -54 37 -85 q 14 48 14 -28 q 14 68 14 58 z "},"V":{"ha":1115,"x_min":14,"x_max":1101,"o":"m 14 297 l 14 912 l 65 918 q 151 922 104 922 q 189 921 170 922 q 271 911 259 919 q 281 831 281 905 q 281 811 281 822 q 273 608 279 718 q 260 408 267 498 q 254 317 254 326 q 349 312 254 312 q 450 299 440 312 q 461 191 457 290 q 475 80 465 92 q 534 64 487 66 q 553 64 545 63 q 593 72 585 64 q 633 81 604 81 q 659 93 655 81 q 666 180 663 106 l 669 280 l 712 298 q 769 311 744 311 q 786 309 778 311 q 804 307 795 307 q 846 331 833 308 q 873 458 864 361 q 884 683 882 549 q 894 854 887 817 l 902 899 l 985 898 q 1004 898 995 898 q 1074 906 1068 898 q 1094 901 1088 929 q 1101 683 1101 862 q 1093 432 1101 513 q 1063 329 1084 351 q 1028 318 1057 323 q 964 311 1000 313 l 879 307 l 873 203 q 857 87 867 98 q 823 78 852 83 q 760 73 795 74 l 674 69 l 663 -124 l 464 -132 l 464 -64 q 456 37 464 3 l 450 71 l 357 66 q 308 64 328 64 q 280 65 290 64 q 250 77 258 68 q 233 190 237 93 l 230 286 l 14 297 z "},"W":{"ha":1097,"x_min":14,"x_max":1084,"o":"m 14 115 l 15 511 q 30 921 16 907 q 71 933 38 929 q 153 940 104 937 q 213 943 202 942 l 241 946 l 253 151 l 333 153 q 422 165 412 156 q 431 220 426 170 q 437 334 435 270 q 456 518 442 469 q 492 560 467 560 q 501 559 496 560 q 517 557 508 557 q 557 564 533 557 q 590 569 574 569 q 631 562 610 569 l 674 547 l 686 161 l 857 161 l 864 545 q 878 947 871 931 q 903 960 882 958 q 940 962 916 962 q 985 961 958 962 l 1084 958 l 1084 450 q 1081 45 1084 156 q 1069 -75 1078 -66 q 991 -88 1061 -86 q 914 -89 966 -89 q 671 -87 828 -89 q 275 -72 287 -82 q 256 -18 262 -61 q 254 8 254 -3 q 261 37 254 29 q 264 48 264 41 q 247 87 264 62 l 221 123 l 14 115 z "},"X":{"ha":888,"x_min":14,"x_max":876,"o":"m 14 -49 l 14 136 q 22 317 14 289 q 82 351 31 345 q 117 353 98 353 q 181 349 145 353 q 244 332 241 342 q 245 300 245 328 q 241 121 245 249 l 236 -79 l 159 -82 q 140 -83 149 -83 q 49 -67 79 -83 l 14 -49 m 39 850 q 39 863 39 857 q 50 960 39 939 q 119 970 62 970 q 132 970 125 970 q 188 965 175 969 q 203 947 201 961 q 224 915 207 924 q 238 879 235 909 q 241 754 241 849 q 256 583 241 604 q 300 567 267 568 q 314 567 305 567 q 470 572 356 567 l 669 582 l 666 777 q 665 849 665 817 q 667 932 666 904 q 677 984 670 977 q 749 1001 692 996 q 808 1005 785 1005 q 823 1004 817 1005 q 857 996 849 1002 q 870 969 865 989 q 875 876 876 951 q 873 747 875 825 l 867 559 l 680 559 l 680 491 q 671 410 680 423 q 668 399 668 404 q 692 378 668 385 q 739 372 711 372 q 758 372 747 372 q 784 373 772 374 q 806 372 796 373 q 839 360 824 370 q 861 336 854 351 q 872 290 868 320 q 876 230 876 262 q 875 224 875 228 q 872 127 875 187 q 868 40 869 67 q 860 -16 866 14 q 850 -54 854 -45 q 830 -71 845 -62 q 800 -80 814 -80 q 789 -80 795 -80 q 756 -79 777 -80 l 680 -79 l 669 354 l 481 360 q 268 380 294 367 q 247 407 252 390 q 239 477 241 423 l 236 559 l 149 555 q 108 553 125 553 q 55 563 60 553 q 46 665 52 568 q 39 850 41 762 z "},"Y":{"ha":1080,"x_min":14,"x_max":1067,"o":"m 14 568 l 14 760 q 17 923 14 892 q 36 962 20 954 q 86 975 59 975 q 114 982 102 975 q 134 997 127 989 q 150 1007 141 1004 q 155 1008 153 1008 q 171 1002 162 1008 q 201 969 183 993 q 228 913 224 940 q 231 818 231 892 q 230 756 231 791 q 229 701 229 725 q 232 618 229 644 q 243 574 235 580 q 325 565 259 565 q 384 559 367 565 q 418 534 401 554 q 441 497 436 515 q 446 433 446 478 q 451 369 446 382 q 481 345 456 356 q 522 334 504 334 q 524 334 522 334 q 553 341 542 335 q 576 347 564 348 q 603 333 589 347 q 620 280 616 319 q 623 100 623 240 l 623 -113 l 452 -113 l 443 104 q 426 328 434 319 q 324 338 420 333 q 222 351 228 342 q 216 452 216 363 q 208 538 216 513 q 180 563 199 562 q 172 564 176 564 q 131 560 155 564 q 102 558 118 558 q 56 562 81 558 l 14 568 m 627 349 l 631 448 q 635 516 633 497 q 643 545 637 536 q 663 562 648 554 q 680 567 669 565 q 705 571 692 570 q 734 573 719 572 q 762 573 749 574 q 787 571 776 572 q 805 568 798 570 q 811 562 811 566 q 823 531 810 554 q 841 479 835 508 q 844 449 844 467 q 838 384 844 423 l 831 349 l 627 349 m 840 581 q 849 690 847 602 q 857 859 851 779 q 877 949 862 938 q 901 962 891 960 q 904 962 903 962 q 914 958 911 962 q 924 947 918 952 q 936 941 929 943 q 959 949 943 940 q 1000 964 982 964 q 1041 938 1025 964 q 1065 757 1058 911 q 1067 671 1067 707 q 1057 582 1067 596 q 1024 566 1048 570 q 938 559 1000 561 q 893 559 912 559 q 842 562 849 559 q 838 570 838 564 q 840 581 838 574 z "},"Z":{"ha":929,"x_min":14,"x_max":916,"o":"m 14 -124 l 16 79 q 31 297 18 282 q 206 330 50 320 q 244 337 237 332 q 248 362 251 342 q 256 399 245 384 q 263 425 263 408 q 261 445 263 434 q 259 476 258 467 q 270 485 261 485 q 300 507 286 485 q 339 526 310 522 q 488 533 369 530 l 662 536 l 665 625 q 667 665 667 648 q 666 686 667 678 q 659 712 663 707 q 640 724 654 718 q 315 739 608 736 l 18 741 l 18 795 q 22 840 18 832 q 41 844 26 848 q 57 842 50 840 q 64 848 64 844 q 53 861 64 861 q 35 885 43 861 q 36 910 31 899 q 60 935 41 921 q 119 958 85 955 q 139 959 130 958 q 175 954 160 959 q 201 941 197 947 q 229 932 207 931 q 319 945 250 933 q 449 960 382 956 q 543 963 487 962 q 632 962 583 963 q 813 955 782 959 q 864 929 844 950 q 888 886 882 910 q 899 787 894 862 l 913 597 q 916 550 916 568 q 909 515 916 519 q 840 509 904 512 q 716 504 777 507 q 656 497 656 501 q 659 489 656 492 q 665 482 661 486 q 671 470 668 478 q 675 442 674 462 q 677 417 676 431 q 676 393 677 406 l 673 320 l 280 320 l 278 286 q 277 237 277 263 q 278 191 277 215 q 285 125 281 138 q 350 113 288 116 q 597 109 412 109 l 904 109 l 910 44 q 911 12 911 26 q 910 -12 911 -1 q 904 -38 907 -34 q 900 -52 901 -42 q 907 -73 899 -62 q 903 -109 922 -101 q 788 -117 885 -117 q 506 -125 625 -118 q 416 -128 452 -128 q 343 -119 355 -128 q 326 -111 333 -111 q 309 -119 319 -111 q 211 -129 297 -129 q 153 -128 185 -129 l 14 -124 z "},"[":{"ha":14,"x_min":0,"x_max":0,"o":""},"\\":{"ha":497,"x_min":14,"x_max":483,"o":"m 14 644 l 18 715 q 22 790 22 787 q 119 783 28 800 q 213 753 210 766 q 222 698 220 732 q 230 648 224 664 q 255 633 236 633 q 300 616 273 633 q 349 606 328 600 q 371 603 368 610 q 370 547 374 595 q 368 194 349 229 q 380 204 373 185 q 381 206 380 205 q 417 222 387 220 q 468 212 448 224 q 483 130 484 201 l 481 58 l 404 52 q 317 50 326 44 q 313 76 313 52 q 315 133 312 100 l 322 211 l 250 214 q 190 221 201 217 q 180 240 178 225 q 189 471 183 264 q 192 576 191 537 q 191 638 192 614 q 186 670 189 663 q 179 678 184 678 q 166 673 172 678 q 157 661 159 668 q 82 644 150 644 l 14 644 z "},"]":{"ha":14,"x_min":0,"x_max":0,"o":""},"a":{"ha":530,"x_min":14,"x_max":517,"o":"m 15 250 q 22 570 20 460 q 32 798 24 775 q 68 818 37 814 q 241 824 98 822 q 353 825 313 824 q 372 825 363 825 q 415 823 399 826 q 444 817 437 821 q 458 804 452 812 q 476 788 465 795 q 496 781 487 781 q 515 758 513 781 q 517 724 517 748 q 515 642 517 693 q 507 285 508 455 q 502 201 507 222 q 473 151 496 180 q 436 98 439 109 q 418 92 433 92 q 396 94 410 92 l 359 100 l 359 241 q 345 385 359 385 q 338 378 342 385 q 332 367 335 374 q 265 346 326 349 l 205 342 l 196 257 q 170 135 187 174 q 148 104 158 111 q 111 98 138 98 q 40 120 68 98 q 19 142 23 134 q 14 209 14 155 q 15 250 14 227 m 198 633 l 205 525 l 259 522 q 283 521 273 521 q 302 522 296 521 q 313 535 313 525 q 324 553 313 551 q 340 538 334 554 q 353 532 347 518 q 356 556 356 542 q 353 587 356 569 l 345 633 l 198 633 m 473 102 q 477 119 473 118 q 478 120 478 119 q 489 109 482 120 q 491 102 491 105 q 484 92 491 96 q 480 91 482 91 q 476 92 478 91 q 473 102 473 95 z "},"b":{"ha":503,"x_min":14,"x_max":489,"o":"m 14 115 l 18 446 q 36 822 22 779 l 52 866 l 129 872 q 245 876 168 875 q 302 875 271 876 q 468 869 423 873 q 487 845 484 867 q 489 777 489 830 q 488 714 489 751 q 480 551 486 560 q 422 542 474 542 q 368 527 378 542 q 356 451 357 511 l 355 399 l 399 402 q 427 404 416 404 q 448 401 437 404 q 464 396 458 399 q 474 384 469 393 q 480 365 479 374 q 484 337 482 356 q 485 299 485 317 q 484 248 484 280 l 481 115 l 14 115 m 181 312 l 184 275 l 310 277 l 317 321 q 321 359 321 346 q 319 374 321 370 q 252 382 315 382 q 189 370 201 382 q 180 336 180 362 q 181 312 180 326 m 196 593 l 251 593 q 312 605 298 594 q 334 654 327 615 l 342 690 l 273 690 q 199 682 203 690 q 196 633 196 673 l 196 593 z "},"c":{"ha":530,"x_min":16,"x_max":515,"o":"m 20 136 q 37 401 31 149 q 45 665 41 628 q 69 718 52 709 q 112 722 76 720 q 114 722 113 722 q 190 745 176 726 q 203 795 203 763 q 203 802 203 798 q 186 845 202 839 q 175 853 180 848 q 170 862 170 858 q 192 867 170 865 q 252 871 214 869 q 334 872 290 872 q 498 859 476 872 q 515 800 515 848 q 514 766 515 785 q 498 712 510 722 q 490 720 492 707 q 488 735 488 726 q 471 765 488 755 q 440 760 453 774 q 448 741 428 748 q 452 719 484 727 q 395 713 432 715 q 277 703 317 711 l 232 696 l 235 288 l 505 286 l 505 115 l 272 112 q 169 111 214 111 q 25 117 45 111 q 16 126 16 120 q 20 136 16 130 m 79 683 q 83 671 79 674 q 92 668 86 668 q 96 669 95 669 q 114 672 104 670 q 139 676 124 673 q 165 678 153 678 q 176 682 172 678 q 181 690 181 685 q 166 698 181 694 q 130 701 151 701 q 89 697 100 701 q 79 683 79 694 m 227 753 q 242 728 227 737 q 251 724 248 724 q 258 734 258 724 q 254 751 258 741 q 237 770 247 770 q 235 770 236 770 q 227 753 227 768 z "},"d":{"ha":507,"x_min":14,"x_max":493,"o":"m 14 264 q 14 319 14 290 q 14 444 14 377 q 20 733 16 661 q 35 817 24 805 q 44 853 50 835 q 56 867 41 863 q 248 872 81 872 q 425 869 382 872 q 478 854 467 865 q 492 799 490 841 q 493 752 493 783 q 491 606 493 700 q 490 535 490 580 q 479 328 486 359 q 455 295 473 300 q 431 292 449 293 q 415 291 421 292 l 353 286 l 341 92 l 296 85 q 137 75 245 76 q 100 74 117 75 q 20 80 26 74 q 16 133 18 82 q 14 264 14 184 m 194 345 q 194 340 194 343 q 201 313 194 318 q 243 305 208 308 q 259 305 252 304 q 282 306 271 305 q 304 312 300 308 q 319 484 312 320 q 329 654 326 648 q 332 663 332 659 q 320 673 331 670 q 260 678 302 678 l 199 678 l 194 345 z "},"e":{"ha":501,"x_min":14,"x_max":488,"o":"m 22 211 q 18 232 22 211 q 14 287 14 253 q 14 408 14 321 q 14 483 14 456 q 14 550 14 519 q 23 806 14 788 q 50 827 34 827 q 66 838 66 827 q 48 857 66 850 l 43 858 q 19 869 19 864 q 33 878 19 873 q 132 886 61 884 q 226 888 184 888 q 336 883 298 887 q 412 852 394 876 q 446 831 429 831 q 456 833 451 831 q 475 831 472 838 q 476 824 475 829 q 472 785 476 812 q 456 722 465 730 q 320 710 447 713 l 194 707 l 189 661 q 187 629 187 642 q 190 608 187 613 q 226 599 195 599 q 255 592 245 599 q 277 565 266 585 q 294 540 284 550 q 312 530 304 530 q 323 527 319 530 q 328 519 328 524 q 324 511 328 514 q 313 508 319 508 q 297 496 307 508 q 280 469 288 485 q 256 436 269 446 q 234 426 243 427 q 216 425 224 426 q 202 412 207 423 q 195 374 197 401 q 195 348 195 357 q 201 330 195 339 q 213 317 206 321 q 238 309 220 313 q 275 302 256 304 q 330 297 294 300 q 401 286 375 293 q 433 273 427 279 q 445 262 438 267 q 466 257 452 257 q 483 249 479 257 q 488 218 488 241 q 479 178 488 193 q 462 160 471 163 q 454 160 454 157 q 418 149 454 167 q 356 133 397 138 q 224 128 315 129 q 182 127 210 128 q 111 126 131 127 q 109 126 109 126 q 65 138 89 126 q 35 159 40 150 q 22 211 29 168 m 413 758 q 412 752 412 755 q 418 747 412 747 q 437 759 431 747 q 439 764 439 762 q 432 770 439 770 q 413 758 420 770 z "},"f":{"ha":452,"x_min":13,"x_max":439,"o":"m 16 120 q 13 149 13 123 q 15 225 13 176 q 20 332 17 275 q 25 471 22 389 q 28 625 27 552 q 33 762 28 726 q 52 827 37 798 q 73 878 73 867 q 73 880 73 879 q 57 884 71 884 q 41 891 44 884 q 46 908 37 899 q 184 916 54 916 q 195 916 190 916 q 342 909 316 916 q 368 896 357 905 q 380 878 378 887 q 399 843 386 845 q 412 859 408 842 q 427 884 419 886 q 439 810 439 881 q 426 735 439 740 q 410 764 418 732 q 394 792 403 792 q 371 776 382 792 q 359 745 359 760 q 347 728 359 732 q 291 724 335 724 q 219 715 224 724 q 217 701 217 712 q 221 656 217 685 q 233 611 226 618 q 271 601 239 604 q 306 594 299 599 q 308 576 312 590 q 319 553 301 553 q 336 512 336 553 q 328 474 336 484 q 281 448 319 465 l 226 425 l 216 344 q 209 268 214 322 q 201 195 203 214 l 194 126 l 109 120 q 43 117 66 117 q 16 120 20 117 z "},"g":{"ha":491,"x_min":14,"x_max":477,"o":"m 15 476 q 14 659 14 587 q 16 782 14 755 q 35 838 18 829 q 52 871 59 851 q 64 891 47 886 q 151 903 81 896 q 328 914 256 914 q 415 908 381 914 l 460 901 l 460 810 q 460 791 460 800 q 458 736 460 751 q 445 718 455 718 q 434 723 438 718 q 431 733 430 727 q 425 747 433 747 q 402 724 415 744 q 372 705 393 709 q 279 701 352 701 q 180 696 191 701 q 179 675 174 691 q 187 619 187 650 q 179 473 187 588 q 175 389 176 420 q 175 376 175 383 q 176 336 175 354 q 188 301 179 312 q 208 286 196 291 q 242 277 220 280 q 278 274 264 274 q 299 278 295 274 q 315 414 308 287 q 338 560 322 521 q 393 599 355 599 q 427 587 418 599 q 422 559 435 575 q 416 529 406 539 q 446 537 427 519 q 470 544 464 553 q 477 440 477 531 q 477 394 477 419 l 476 326 l 473 126 l 18 126 l 15 476 m 414 822 q 412 819 414 822 q 411 810 411 817 q 414 798 411 803 q 422 792 417 792 q 430 798 427 792 q 433 810 433 803 q 430 822 433 817 q 422 827 427 827 q 414 822 417 827 z "},"h":{"ha":529,"x_min":11,"x_max":515,"o":"m 14 178 q 11 225 11 197 q 19 335 11 269 q 26 517 26 471 q 26 536 26 532 q 22 608 22 566 q 24 682 22 642 q 44 802 31 774 q 68 837 57 829 q 107 847 79 845 q 122 848 115 848 q 151 844 140 848 q 174 832 165 838 q 196 827 182 827 q 207 823 203 827 q 213 805 210 820 q 216 769 216 791 q 219 704 217 747 l 222 582 l 261 578 q 281 578 272 578 q 309 584 303 578 q 330 700 321 595 q 336 791 336 756 q 332 834 336 821 q 326 867 326 856 q 328 877 326 874 q 344 877 335 884 q 348 861 353 869 q 359 838 342 852 q 375 833 370 831 q 387 843 380 835 q 399 861 393 852 q 417 876 404 869 q 439 882 427 881 q 447 881 443 882 q 486 861 473 878 q 507 788 498 844 q 515 637 515 735 q 515 629 515 633 q 515 351 515 526 q 501 132 513 132 q 493 140 496 132 q 490 161 490 149 q 479 189 490 189 q 462 156 469 187 q 448 127 457 134 q 401 118 438 121 q 354 115 370 115 q 340 117 342 115 q 331 183 331 121 q 331 205 331 193 q 343 299 332 289 q 347 336 357 313 q 318 359 338 359 q 303 363 309 359 q 296 371 296 366 q 287 379 296 376 q 263 382 277 382 q 246 380 252 382 q 234 371 239 378 q 225 353 228 363 q 220 321 222 342 q 217 274 218 300 q 215 208 216 249 q 198 99 213 100 q 189 108 194 99 q 161 115 186 113 q 128 117 146 117 q 107 116 118 117 q 81 115 93 115 q 37 121 47 115 q 14 178 22 129 z "},"i":{"ha":237,"x_min":15,"x_max":224,"o":"m 18 135 q 15 182 15 146 q 18 280 15 218 q 19 292 18 288 q 19 303 19 296 q 20 317 20 311 q 27 547 27 456 q 26 612 27 584 q 25 637 25 625 q 37 751 24 699 q 73 829 50 815 q 125 838 86 838 q 134 837 129 837 q 189 825 182 836 q 196 757 193 818 q 203 624 199 696 q 214 524 207 552 q 224 376 224 471 q 224 370 224 372 q 214 190 224 279 q 193 98 205 98 q 183 114 183 98 q 177 134 183 128 q 160 136 170 140 q 137 121 149 133 q 111 104 124 108 q 78 104 98 101 q 66 106 74 105 q 18 135 24 113 z "},"j":{"ha":558,"x_min":14,"x_max":545,"o":"m 14 -27 q 29 52 15 5 q 56 105 43 98 q 189 114 66 111 q 323 124 312 117 q 334 273 334 136 q 332 410 334 331 q 319 690 326 680 q 182 701 312 701 l 52 701 l 52 859 l 146 863 q 358 866 232 866 q 444 864 422 866 q 476 857 465 862 q 501 834 488 851 q 524 772 519 812 q 536 572 530 732 q 545 330 545 382 q 544 326 545 328 q 536 195 544 277 q 519 92 528 100 q 496 108 513 85 q 477 129 481 129 q 468 112 473 127 q 452 92 464 98 q 413 84 440 86 l 366 81 l 359 12 q 351 -43 356 -28 q 334 -60 346 -57 q 327 -60 330 -60 q 319 -57 321 -60 q 319 -34 316 -52 l 331 23 q 333 43 333 33 q 330 66 333 55 q 315 87 325 87 q 307 45 307 87 q 301 9 307 22 q 282 -13 296 -3 q 264 -30 272 -20 q 257 -46 257 -39 q 233 -58 257 -56 q 193 -60 220 -60 q 135 -59 170 -60 q 29 -53 44 -56 q 14 -28 14 -49 l 14 -27 z "},"k":{"ha":528,"x_min":14,"x_max":514,"o":"m 16 267 q 25 527 23 368 q 31 775 27 686 q 47 872 34 865 q 56 876 52 876 q 67 859 64 876 q 91 838 70 840 q 119 855 112 836 q 132 866 121 863 q 154 867 142 869 q 179 862 167 865 q 198 856 191 859 l 206 852 q 219 740 210 850 q 237 621 228 629 q 281 607 248 610 l 314 604 l 321 713 q 336 842 328 822 q 393 861 345 861 q 397 861 395 861 q 461 844 444 861 q 488 827 478 827 q 513 736 507 826 q 514 695 514 714 q 502 604 514 636 q 484 578 494 582 q 468 576 479 576 q 435 578 456 576 q 402 581 416 581 q 359 571 370 581 q 342 502 342 557 q 355 433 342 446 q 430 418 368 421 q 463 410 451 418 q 477 393 475 402 q 486 372 480 383 q 501 355 492 360 q 513 245 513 347 l 513 142 l 348 149 l 341 267 q 323 395 334 385 q 301 402 318 400 q 267 403 285 404 l 223 399 l 214 320 q 207 253 210 287 q 203 201 204 218 q 199 169 201 184 q 194 149 197 154 q 186 144 191 144 q 176 149 180 144 q 172 161 172 154 q 167 176 172 172 q 156 176 162 180 q 145 161 149 172 q 132 149 142 154 q 109 144 121 144 q 59 132 79 144 q 41 127 48 127 q 18 151 24 127 q 14 205 14 169 q 16 267 14 231 z "},"l":{"ha":501,"x_min":14,"x_max":487,"o":"m 15 176 q 27 355 24 209 q 28 427 28 395 q 22 530 28 510 q 16 613 16 556 q 18 701 16 650 l 26 832 l 95 836 q 121 837 111 837 q 125 838 123 837 l 143 836 q 161 833 154 835 q 174 826 168 831 q 185 816 181 821 q 193 800 189 810 q 199 780 197 790 q 204 753 201 770 q 208 720 206 736 q 210 678 209 703 q 220 451 219 545 q 216 349 220 391 l 210 286 l 250 283 q 428 262 374 273 q 447 250 444 259 q 446 212 450 241 q 444 186 444 197 q 452 166 444 166 q 465 152 466 166 q 450 130 465 136 q 446 128 448 129 q 451 121 431 124 l 460 121 q 487 117 487 119 q 467 109 487 115 q 236 99 437 100 l 34 98 l 22 128 q 14 164 14 149 q 15 176 14 171 z "},"m":{"ha":795,"x_min":14,"x_max":782,"o":"m 14 588 q 26 750 15 736 q 33 780 37 764 q 23 806 29 796 q 25 827 16 815 q 174 840 32 834 q 354 842 263 843 q 464 841 408 842 q 626 825 612 838 q 637 743 637 813 l 637 673 l 703 667 q 777 650 768 661 q 781 567 780 646 q 782 511 782 541 q 780 382 782 453 l 774 126 l 711 123 q 685 122 697 122 q 616 132 641 122 l 584 144 l 591 277 q 598 514 598 406 q 599 524 598 519 q 592 633 599 623 q 537 644 585 644 l 490 644 l 491 545 q 491 518 491 532 q 484 298 491 431 q 468 136 476 143 q 455 136 463 130 q 438 146 448 142 q 404 135 428 150 q 357 115 376 116 q 331 120 339 113 q 316 158 322 126 q 307 238 309 190 q 302 387 304 287 l 296 627 l 208 627 l 205 525 q 191 275 199 357 q 171 159 184 193 q 141 110 156 119 q 111 104 132 104 q 82 106 98 104 q 46 116 58 109 q 28 138 34 123 q 18 296 23 151 q 14 532 13 412 q 14 588 14 559 z "},"n":{"ha":519,"x_min":14,"x_max":505,"o":"m 15 161 q 21 355 20 186 q 27 680 22 524 q 47 851 33 836 q 57 864 55 860 q 55 873 58 869 q 40 883 52 877 q 25 896 30 888 q 22 907 20 903 q 90 914 27 914 q 163 913 121 914 q 326 897 296 908 q 352 876 347 889 q 360 819 357 863 l 363 753 l 500 741 l 503 450 q 505 307 505 365 q 502 197 505 221 q 476 137 497 146 q 456 134 470 134 q 414 138 440 134 q 401 140 406 139 l 330 149 l 333 189 q 343 455 340 267 q 345 584 345 533 q 342 673 345 655 q 329 713 336 707 q 283 721 321 720 q 271 721 277 721 q 227 709 231 721 q 214 499 223 697 q 205 214 205 300 l 204 131 l 107 134 q 26 141 39 137 q 14 156 14 144 q 15 161 14 158 m 114 174 q 111 173 114 174 q 107 166 107 171 q 114 158 107 161 q 130 155 121 155 q 146 158 140 155 q 153 166 153 161 q 146 174 153 171 q 130 178 140 178 q 114 174 121 178 m 415 724 q 404 713 404 724 q 415 701 404 701 q 426 713 426 701 q 415 724 426 724 z "},"o":{"ha":477,"x_min":14,"x_max":464,"o":"m 14 240 l 18 468 q 27 704 21 694 q 77 713 32 713 q 124 722 115 713 q 138 775 133 731 q 148 809 140 792 q 164 833 156 827 q 194 844 172 839 q 237 848 216 848 q 240 848 239 848 q 304 828 283 848 q 329 757 324 807 q 339 723 332 728 q 389 715 347 718 q 454 703 446 711 q 464 590 463 695 q 464 552 464 571 q 459 377 464 466 q 455 321 457 342 q 449 283 453 301 q 439 257 444 265 q 422 243 433 249 q 399 236 412 237 q 365 235 387 235 q 314 226 315 235 q 310 176 312 212 q 306 133 309 146 q 295 110 304 119 q 273 99 286 101 q 233 98 260 98 q 158 115 177 98 q 139 182 139 132 l 139 229 l 14 240 m 173 275 l 223 271 q 239 271 231 271 q 262 272 251 271 q 283 278 279 274 q 296 486 294 288 l 298 684 l 239 687 q 214 688 224 688 q 177 682 180 688 q 173 473 173 672 l 173 275 z "},"p":{"ha":529,"x_min":14,"x_max":515,"o":"m 14 115 l 14 223 q 46 832 15 741 q 283 844 51 844 l 515 844 l 511 633 q 502 414 507 422 q 356 406 497 406 l 216 406 l 209 311 q 202 204 205 267 q 194 118 197 132 q 179 107 191 107 q 173 108 176 107 q 82 113 148 112 l 14 115 m 193 619 l 196 582 l 355 582 l 362 690 l 281 690 q 201 680 215 690 q 191 642 191 671 q 193 619 191 632 z "},"q":{"ha":536,"x_min":14,"x_max":523,"o":"m 16 307 q 27 429 22 333 q 39 609 33 525 q 56 705 45 693 q 78 719 62 713 q 112 726 95 725 l 154 730 l 165 800 q 188 882 176 870 q 211 892 193 888 q 246 899 229 897 q 281 903 263 901 q 299 905 298 905 q 300 905 300 905 q 345 873 309 905 q 375 836 368 851 q 381 785 381 820 l 381 731 l 484 706 l 487 558 q 488 484 488 518 q 481 349 488 396 l 473 286 l 370 275 l 370 149 l 427 148 q 470 143 457 147 q 480 132 482 140 q 479 129 479 130 q 502 91 479 114 q 523 45 523 69 q 522 40 523 43 q 495 12 520 13 q 459 3 481 12 q 433 -2 446 -2 q 414 1 423 -2 q 394 3 403 3 q 370 -4 379 3 q 357 -10 363 -10 q 335 20 343 -10 q 328 64 330 37 l 324 115 l 159 115 l 159 197 q 157 255 159 239 q 150 278 155 271 q 131 292 145 286 q 111 303 119 296 q 102 315 102 309 q 71 293 102 326 q 69 290 71 292 q 28 262 43 262 q 24 263 26 262 q 14 284 14 267 q 16 307 14 294 m 188 310 l 258 306 q 293 304 279 304 q 316 307 309 304 q 334 322 330 309 q 343 464 339 338 q 345 589 345 537 q 344 652 345 627 l 342 701 l 273 701 q 203 699 205 701 q 190 377 200 692 l 188 310 z "},"r":{"ha":504,"x_min":14,"x_max":490,"o":"m 14 108 l 17 459 q 34 835 20 810 q 70 857 44 854 q 227 861 96 861 q 446 849 405 861 l 485 838 l 481 715 q 474 579 477 589 q 456 569 472 574 q 420 562 441 564 l 372 559 l 368 499 q 367 470 367 481 q 370 447 367 452 q 399 433 374 438 q 424 423 414 430 q 434 410 434 416 q 439 398 434 403 q 452 394 445 394 q 464 397 463 394 q 456 411 465 401 q 449 435 444 427 q 474 435 455 443 q 488 401 486 431 q 490 347 490 386 q 488 266 490 315 l 485 104 l 404 101 q 376 100 389 100 q 351 102 361 100 q 321 108 332 103 q 312 121 311 113 q 319 144 313 130 q 335 295 332 168 q 336 345 336 323 q 334 406 336 393 q 311 426 331 423 q 307 427 309 427 q 248 399 283 427 q 207 336 217 376 q 191 186 196 295 q 175 117 189 138 q 162 123 165 104 l 161 141 q 151 176 161 173 q 140 166 144 178 q 136 146 137 158 q 102 98 132 114 q 69 89 85 89 q 42 95 56 89 l 14 108 m 168 714 q 165 702 165 711 q 175 649 165 685 q 211 589 187 604 q 263 578 229 577 q 286 578 274 578 l 326 582 l 326 718 l 250 722 q 218 722 233 722 q 168 714 173 722 m 446 144 q 434 132 434 144 q 446 121 434 121 q 456 132 456 121 q 446 144 456 144 z "},"s":{"ha":525,"x_min":14,"x_max":511,"o":"m 20 197 q 30 231 25 221 q 41 250 35 240 q 73 264 47 260 q 123 271 99 268 q 211 278 147 273 l 317 286 l 326 336 q 331 383 331 368 q 330 393 331 391 q 210 403 325 400 q 34 431 78 406 q 23 452 16 441 q 29 549 29 461 q 29 583 29 564 q 28 625 28 606 q 31 686 28 674 q 57 708 35 703 q 92 711 72 711 q 132 709 109 711 q 149 707 141 707 q 186 722 176 708 q 199 804 199 739 l 199 863 l 340 859 q 486 849 481 856 q 489 829 489 846 q 486 771 489 809 q 475 707 481 719 q 439 682 469 695 q 340 668 407 668 q 307 669 324 668 l 216 673 l 216 582 l 334 573 q 438 561 414 568 q 482 535 463 555 q 507 496 502 515 q 511 436 512 480 q 511 424 511 430 q 504 292 511 353 l 497 240 l 453 243 q 431 244 441 244 q 378 235 400 244 q 352 216 357 227 q 346 165 347 204 q 335 111 346 111 q 332 112 334 111 q 323 124 326 115 q 322 145 321 134 q 323 166 323 156 q 321 183 324 177 q 311 186 319 189 q 301 175 304 184 q 298 154 297 165 q 292 130 300 134 q 245 125 283 125 q 96 115 168 123 q 64 113 78 113 q 23 123 34 113 q 14 155 15 133 q 20 197 14 172 z "},"t":{"ha":497,"x_min":14,"x_max":484,"o":"m 24 784 q 35 844 32 834 q 235 858 38 856 q 280 858 258 858 q 447 847 433 858 q 458 827 454 840 q 461 803 463 814 q 452 792 459 792 q 435 770 444 792 q 423 725 425 747 q 402 700 422 709 l 362 680 q 346 656 350 674 q 341 587 342 637 q 332 290 340 465 q 319 108 323 115 q 314 103 316 104 q 313 103 313 103 q 307 104 311 103 q 293 108 301 106 q 269 112 286 110 q 231 115 252 115 l 176 115 l 172 229 q 167 322 170 283 q 164 368 165 361 q 163 397 164 374 q 163 412 163 404 q 164 442 163 427 q 169 494 165 479 q 183 508 174 508 q 195 513 190 508 q 200 525 200 518 q 195 537 200 532 q 184 542 191 542 q 161 575 168 542 q 158 600 158 588 q 165 636 158 619 q 160 675 176 666 q 80 684 144 684 q 23 688 34 684 q 14 703 14 691 q 24 784 14 714 m 192 615 q 190 611 192 615 q 189 599 189 608 q 192 583 189 590 q 200 576 195 576 q 208 583 205 576 q 212 599 212 590 q 208 615 212 608 q 200 622 205 622 q 192 615 195 622 m 456 725 q 466 732 460 732 q 473 729 469 732 q 483 712 480 724 q 484 699 484 705 q 483 689 484 694 q 474 678 480 678 q 457 696 464 678 q 454 713 454 706 q 456 725 454 720 z "},"u":{"ha":553,"x_min":14,"x_max":539,"o":"m 14 237 l 20 341 q 43 604 24 420 q 73 802 62 787 q 99 815 83 814 q 129 806 114 815 q 159 789 143 798 q 188 775 176 780 q 209 779 199 771 q 230 792 222 792 q 234 741 233 792 q 234 718 234 730 q 232 596 234 670 q 224 388 229 503 q 224 380 224 385 q 216 285 220 294 q 197 282 211 279 l 196 283 q 187 284 191 284 q 156 264 170 284 q 131 243 145 248 q 77 237 116 238 l 14 237 m 185 159 q 177 224 177 200 q 187 254 177 250 q 221 247 198 259 q 250 238 232 241 q 281 236 268 235 l 315 240 l 322 342 q 333 476 327 408 q 343 590 339 544 q 349 700 347 636 q 361 817 354 806 q 370 823 365 823 q 378 821 374 823 q 382 803 389 814 q 391 794 379 798 q 410 792 399 792 q 448 803 437 792 q 484 817 458 814 q 514 812 507 820 q 531 765 521 804 q 539 721 538 736 q 539 715 539 718 q 537 690 540 703 q 529 620 534 675 q 520 485 523 565 q 505 239 515 355 q 485 84 495 123 l 477 54 l 368 60 q 234 75 258 67 q 198 107 208 83 q 185 159 193 119 z "},"v":{"ha":524,"x_min":14,"x_max":510,"o":"m 14 215 l 22 307 q 33 466 28 376 q 39 617 37 555 q 46 735 41 678 q 60 820 50 791 q 87 849 70 849 q 125 834 100 849 q 163 805 151 820 q 176 794 176 790 q 173 806 176 797 q 178 833 167 826 q 203 825 190 841 q 213 713 213 814 q 198 312 213 585 l 194 240 l 252 237 q 279 236 268 235 q 303 239 298 236 q 317 269 312 243 q 326 507 322 292 q 335 760 329 722 q 339 798 339 782 q 339 806 339 802 q 334 830 338 825 q 330 842 331 835 q 332 852 328 849 q 413 861 336 861 q 503 852 490 861 q 510 773 510 847 q 506 627 510 719 q 490 311 496 381 q 471 228 484 241 q 441 214 464 221 q 394 204 419 207 l 334 197 l 340 142 q 342 112 342 125 q 327 77 342 77 q 325 77 326 77 q 310 85 319 78 q 279 92 301 92 q 233 87 261 92 q 193 83 210 83 q 161 91 170 83 q 151 123 151 100 q 154 155 151 137 q 158 193 158 179 q 155 210 158 205 q 121 227 146 223 q 86 218 95 230 q 69 210 81 212 q 44 210 57 207 l 14 215 m 374 822 q 370 803 370 812 q 376 782 370 792 q 388 774 382 774 q 393 775 391 774 q 401 786 397 778 q 404 804 404 795 q 391 833 404 827 q 386 834 388 834 q 374 822 379 834 z "},"w":{"ha":826,"x_min":14,"x_max":813,"o":"m 14 282 q 16 316 14 293 q 20 379 18 343 q 26 484 23 414 q 29 633 28 553 q 42 856 32 844 q 115 867 52 867 q 130 867 122 867 l 207 866 l 209 583 q 220 292 212 299 q 243 282 223 289 q 283 273 262 275 q 311 286 304 271 q 324 579 317 302 q 334 817 330 778 q 355 855 338 855 q 373 832 378 855 q 373 817 371 818 q 391 834 376 816 l 392 836 q 419 856 406 852 q 446 859 428 859 q 463 859 454 859 l 514 855 l 512 810 q 506 525 509 765 l 503 286 l 545 275 q 581 270 568 270 q 597 274 593 270 q 611 555 605 282 q 615 708 613 661 q 620 789 616 755 q 627 830 623 823 q 640 845 631 838 q 657 855 652 854 q 664 852 663 857 q 666 842 665 848 q 674 832 667 837 q 696 827 682 827 q 734 824 715 827 q 762 819 753 821 q 780 817 772 817 q 790 821 787 817 q 793 838 793 826 q 797 853 793 848 q 806 854 800 857 q 813 705 814 849 q 811 481 814 618 q 790 100 803 117 q 724 90 783 91 q 685 89 709 89 q 486 92 618 89 q 186 106 195 100 q 182 113 181 109 q 187 122 184 117 q 193 131 190 127 q 194 140 196 136 q 183 148 192 144 q 170 160 172 152 q 172 186 168 169 q 174 204 174 197 q 163 231 174 221 q 88 250 146 243 q 18 265 27 256 q 14 282 14 269 m 474 827 q 468 827 474 827 q 463 815 463 827 q 474 804 463 804 q 486 815 486 804 q 474 827 486 827 m 686 852 q 682 854 686 852 q 679 861 679 856 q 686 869 679 865 q 702 872 693 872 q 718 869 711 872 q 725 861 725 865 q 718 852 725 856 q 702 849 711 849 q 686 852 693 849 z "},"x":{"ha":536,"x_min":14,"x_max":522,"o":"m 14 356 l 45 376 q 81 391 62 388 q 100 392 89 392 q 130 390 113 392 l 184 384 l 191 435 q 196 481 196 468 q 194 492 196 490 q 124 505 191 496 q 48 526 58 514 q 40 565 40 536 q 43 610 40 583 q 54 665 48 652 q 73 678 60 678 q 89 682 82 678 q 95 690 95 685 q 90 698 95 694 q 77 701 84 701 q 64 716 67 701 q 60 775 60 731 q 75 853 60 841 q 93 857 80 858 q 147 846 112 857 q 191 836 181 836 q 193 836 191 836 q 210 852 202 836 q 224 868 218 868 q 234 849 231 868 q 239 738 239 820 q 239 699 239 720 l 237 536 l 279 532 q 291 532 286 532 q 321 540 311 532 q 340 581 335 551 q 343 648 343 604 q 343 675 343 661 q 342 756 342 725 q 343 800 342 788 q 366 837 345 827 q 395 844 379 844 q 411 842 403 844 q 460 837 436 838 q 491 840 484 835 q 505 848 499 848 q 519 828 515 848 q 522 765 522 809 q 521 694 522 735 q 510 560 517 604 q 487 500 502 517 q 456 488 475 488 q 442 490 450 488 q 416 492 429 492 q 374 485 393 492 q 350 468 355 477 q 347 431 345 458 q 359 392 350 399 q 422 374 369 385 q 472 359 451 368 q 493 347 493 351 q 458 342 493 335 q 430 343 435 347 q 427 323 425 340 q 436 302 429 307 q 462 299 444 298 l 493 302 l 493 222 q 490 157 493 170 q 474 146 487 144 q 457 140 464 148 q 448 115 451 133 q 435 86 444 93 q 397 77 427 79 q 386 77 391 77 q 363 79 374 77 q 341 86 346 81 q 327 213 332 95 q 314 338 321 331 q 281 347 306 347 q 264 346 274 347 l 226 342 l 218 241 q 206 152 212 172 q 178 114 199 132 q 122 85 149 91 q 95 82 110 82 q 57 86 77 82 l 21 94 l 14 356 m 159 541 q 188 530 163 530 q 204 537 199 530 q 209 564 209 545 q 197 603 209 599 q 170 578 184 608 q 158 545 158 557 q 159 541 158 543 m 197 815 q 192 815 197 815 q 186 804 186 815 q 197 792 186 792 q 209 804 209 792 q 197 815 209 815 z "},"y":{"ha":543,"x_min":14,"x_max":529,"o":"m 14 616 q 14 664 14 642 q 16 786 14 752 q 30 840 19 828 q 88 861 49 861 q 92 861 90 861 q 147 837 135 860 q 162 822 153 827 q 179 817 171 816 q 181 817 180 817 q 211 673 210 817 q 211 657 211 665 q 208 564 211 615 q 205 489 205 512 q 206 449 204 465 q 212 428 208 432 q 224 418 216 423 q 281 406 245 407 q 288 406 285 406 q 322 414 317 406 q 330 587 328 422 q 339 800 333 760 q 372 850 345 840 q 405 856 387 856 q 452 848 426 856 q 510 810 501 834 q 528 647 522 777 q 529 571 529 603 q 522 490 529 507 q 509 414 509 455 l 509 371 l 357 371 l 357 317 q 347 191 357 267 q 341 157 344 169 q 333 134 339 144 q 321 118 328 123 q 301 111 315 114 q 277 109 290 109 q 273 110 275 109 q 232 111 258 110 l 176 115 l 179 240 q 180 288 180 267 q 172 380 180 369 q 143 393 168 387 q 89 403 119 400 l 16 411 l 14 616 m 158 439 q 147 428 147 439 q 158 416 147 416 q 170 428 170 416 q 158 439 170 439 m 222 379 q 219 377 222 379 q 215 371 215 376 q 222 363 215 366 q 238 359 229 359 q 254 363 247 359 q 260 371 260 366 q 254 379 260 376 q 238 382 247 382 q 222 379 229 382 z "},"z":{"ha":524,"x_min":14,"x_max":510,"o":"m 14 126 l 14 278 q 14 306 14 292 q 26 439 14 431 q 106 453 38 450 l 174 456 l 174 518 q 198 598 175 575 q 277 622 221 622 q 321 627 315 622 q 328 661 328 631 l 328 701 l 272 701 q 142 709 206 701 q 77 725 77 717 q 86 732 77 729 q 106 735 94 735 q 130 743 132 735 q 87 763 127 755 l 76 765 q 38 777 46 770 q 24 811 29 785 q 23 847 20 833 q 38 873 26 860 q 83 891 52 888 q 239 895 114 895 q 388 891 343 895 q 453 877 433 887 q 471 866 465 870 q 481 859 476 863 q 487 849 486 856 q 489 837 488 842 q 491 815 490 831 q 493 787 492 799 q 494 752 494 770 q 485 659 494 708 l 471 587 l 422 587 q 387 584 403 587 q 368 576 370 581 q 354 508 361 567 q 329 437 348 457 q 265 414 311 418 q 226 405 235 412 q 212 371 218 398 q 209 341 209 353 q 214 318 209 326 q 309 290 230 298 q 485 279 356 286 q 506 268 502 278 q 510 213 510 257 q 498 140 510 157 q 416 110 482 114 q 383 109 404 109 q 157 118 314 109 l 14 126 z "},"{":{"ha":14,"x_min":0,"x_max":0,"o":""},"|":{"ha":14,"x_min":0,"x_max":0,"o":""},"}":{"ha":14,"x_min":0,"x_max":0,"o":""},"~":{"ha":14,"x_min":0,"x_max":0,"o":""},"":{"ha":583,"x_min":0,"x_max":0,"o":""},"":{"ha":14,"x_min":0,"x_max":0,"o":""},"":{"ha":14,"x_min":0,"x_max":0,"o":""},"":{"ha":14,"x_min":0,"x_max":0,"o":""},"":{"ha":14,"x_min":0,"x_max":0,"o":""},"":{"ha":477,"x_min":20,"x_max":464,"o":"m 20 368 q 26 439 8 380 q 37 519 43 498 q 36 539 33 535 q 50 538 38 543 q 257 530 68 531 q 355 529 321 530 q 410 526 389 528 q 435 520 431 524 q 438 511 440 517 q 451 455 432 495 q 464 417 465 427 q 447 385 463 406 l 424 354 l 229 355 q 20 368 33 355 z "},"":{"ha":14,"x_min":0,"x_max":0,"o":""},"":{"ha":14,"x_min":0,"x_max":0,"o":""},"":{"ha":14,"x_min":0,"x_max":0,"o":""},"":{"ha":14,"x_min":0,"x_max":0,"o":""},"":{"ha":14,"x_min":0,"x_max":0,"o":""},"":{"ha":14,"x_min":0,"x_max":0,"o":""},"":{"ha":14,"x_min":0,"x_max":0,"o":""},"":{"ha":14,"x_min":0,"x_max":0,"o":""},"":{"ha":14,"x_min":0,"x_max":0,"o":""},"":{"ha":14,"x_min":0,"x_max":0,"o":""},"":{"ha":14,"x_min":0,"x_max":0,"o":""},"":{"ha":14,"x_min":0,"x_max":0,"o":""},"":{"ha":14,"x_min":0,"x_max":0,"o":""},"":{"ha":14,"x_min":0,"x_max":0,"o":""},"":{"ha":14,"x_min":0,"x_max":0,"o":""},"":{"ha":14,"x_min":0,"x_max":0,"o":""},"":{"ha":14,"x_min":0,"x_max":0,"o":""},"":{"ha":14,"x_min":0,"x_max":0,"o":""},"":{"ha":14,"x_min":0,"x_max":0,"o":""},"":{"ha":14,"x_min":0,"x_max":0,"o":""},"":{"ha":14,"x_min":0,"x_max":0,"o":""},"":{"ha":14,"x_min":0,"x_max":0,"o":""},"":{"ha":14,"x_min":0,"x_max":0,"o":""},"":{"ha":14,"x_min":0,"x_max":0,"o":""},"":{"ha":14,"x_min":0,"x_max":0,"o":""},"":{"ha":14,"x_min":0,"x_max":0,"o":""},"":{"ha":14,"x_min":0,"x_max":0,"o":""},"":{"ha":14,"x_min":0,"x_max":0,"o":""},"":{"ha":14,"x_min":0,"x_max":0,"o":""},"":{"ha":14,"x_min":0,"x_max":0,"o":""},"":{"ha":14,"x_min":0,"x_max":0,"o":""},"":{"ha":14,"x_min":0,"x_max":0,"o":""},"":{"ha":14,"x_min":0,"x_max":0,"o":""},"":{"ha":14,"x_min":0,"x_max":0,"o":""},"":{"ha":14,"x_min":0,"x_max":0,"o":""},"":{"ha":14,"x_min":0,"x_max":0,"o":""},"":{"ha":14,"x_min":0,"x_max":0,"o":""},"":{"ha":14,"x_min":0,"x_max":0,"o":""},"":{"ha":14,"x_min":0,"x_max":0,"o":""},"":{"ha":14,"x_min":0,"x_max":0,"o":""},"":{"ha":509,"x_min":0,"x_max":0,"o":""},"":{"ha":1019,"x_min":0,"x_max":0,"o":""},"":{"ha":509,"x_min":0,"x_max":0,"o":""},"":{"ha":1019,"x_min":0,"x_max":0,"o":""},"":{"ha":340,"x_min":0,"x_max":0,"o":""},"":{"ha":254,"x_min":0,"x_max":0,"o":""},"":{"ha":170,"x_min":0,"x_max":0,"o":""},"":{"ha":170,"x_min":0,"x_max":0,"o":""},"":{"ha":127,"x_min":0,"x_max":0,"o":""},"":{"ha":203,"x_min":0,"x_max":0,"o":""},"":{"ha":56,"x_min":0,"x_max":0,"o":""},"":{"ha":477,"x_min":20,"x_max":464,"o":"m 20 368 q 26 439 8 380 q 37 519 43 498 q 36 539 33 535 q 50 538 38 543 q 257 530 68 531 q 355 529 321 530 q 410 526 389 528 q 435 520 431 524 q 438 511 440 517 q 451 455 432 495 q 464 417 465 427 q 447 385 463 406 l 424 354 l 229 355 q 20 368 33 355 z "},"":{"ha":477,"x_min":20,"x_max":464,"o":"m 20 368 q 26 439 8 380 q 37 519 43 498 q 36 539 33 535 q 50 538 38 543 q 257 530 68 531 q 355 529 321 530 q 410 526 389 528 q 435 520 431 524 q 438 511 440 517 q 451 455 432 495 q 464 417 465 427 q 447 385 463 406 l 424 354 l 229 355 q 20 368 33 355 z "},"":{"ha":477,"x_min":20,"x_max":464,"o":"m 20 368 q 26 439 8 380 q 37 519 43 498 q 36 539 33 535 q 50 538 38 543 q 257 530 68 531 q 355 529 321 530 q 410 526 389 528 q 435 520 431 524 q 438 511 440 517 q 451 455 432 495 q 464 417 465 427 q 447 385 463 406 l 424 354 l 229 355 q 20 368 33 355 z "},"":{"ha":722,"x_min":22,"x_max":709,"o":"m 22 368 q 31 439 4 380 q 49 519 58 498 q 46 539 43 535 q 68 538 50 543 q 389 530 96 531 q 542 529 489 530 q 626 526 594 528 q 665 520 658 524 q 669 511 673 517 q 690 455 660 495 q 709 417 710 427 q 683 385 708 406 l 648 354 l 345 355 q 22 368 43 355 z "},"":{"ha":1417,"x_min":30,"x_max":1404,"o":"m 31 368 q 47 439 -7 380 q 83 519 102 498 q 78 539 71 535 q 121 538 85 543 q 763 530 178 531 q 1068 529 963 530 q 1237 526 1173 528 q 1315 520 1301 524 q 1324 511 1330 517 q 1364 455 1305 495 q 1404 417 1406 427 q 1351 385 1402 406 l 1280 354 l 675 355 q 31 368 71 355 z "},"":{"ha":14,"x_min":0,"x_max":0,"o":""},"":{"ha":14,"x_min":0,"x_max":0,"o":""},"":{"ha":14,"x_min":0,"x_max":0,"o":""},"":{"ha":203,"x_min":0,"x_max":0,"o":""},"":{"ha":254,"x_min":0,"x_max":0,"o":""},"":{"ha":14,"x_min":0,"x_max":0,"o":""},"":{"ha":868,"x_min":0,"x_max":868,"o":"m 0 0 l 0 868 l 868 868 l 868 0 l 0 0 z "}}}
